<svg width="20" height="20" viewBox="0 0 20 20" fill="none" xmlns="http://www.w3.org/2000/svg">
<path d="M12.5 14.1665C11.8337 14.6851 10.9585 14.9998 10 14.9998C9.04146 14.9998 8.16627 14.6851 7.5 14.1665" stroke="#F5F5F4" stroke-width="1.5" stroke-linecap="round"/>
<path d="M1.95982 11.011C1.66563 9.09671 1.51854 8.13953 1.88046 7.29098C2.24238 6.44244 3.04535 5.86186 4.65127 4.70072L5.85115 3.83317C7.8489 2.38873 8.84778 1.6665 10.0003 1.6665C11.1529 1.6665 12.1517 2.38873 14.1495 3.83317L15.3494 4.70072C16.9553 5.86186 17.7583 6.44244 18.1202 7.29098C18.4821 8.13953 18.335 9.0967 18.0408 11.011L17.79 12.6435C17.3729 15.3573 17.1644 16.7142 16.1912 17.5237C15.2179 18.3332 13.795 18.3332 10.9493 18.3332H9.05131C6.2056 18.3332 4.78275 18.3332 3.80949 17.5237C2.83623 16.7142 2.62772 15.3573 2.21068 12.6435L1.95982 11.011Z" stroke="#F5F5F4" stroke-width="1.5" stroke-linejoin="round"/>
</svg>
